<svg width="12" height="13" viewBox="0 0 12 13" fill="none" xmlns="http://www.w3.org/2000/svg">
<path d="M6 12.5C4.46667 12.5 3.13056 11.9917 1.99167 10.975C0.852778 9.95833 0.2 8.68889 0.0333333 7.16667H1.4C1.55556 8.32222 2.06944 9.27778 2.94167 10.0333C3.81389 10.7889 4.83333 11.1667 6 11.1667C7.3 11.1667 8.40278 10.7139 9.30833 9.80833C10.2139 8.90278 10.6667 7.8 10.6667 6.5C10.6667 5.2 10.2139 4.09722 9.30833 3.19167C8.40278 2.28611 7.3 1.83333 6 1.83333C5.23333 1.83333 4.51667 2.01111 3.85 2.36667C3.18333 2.72222 2.62222 3.21111 2.16667 3.83333H4V5.16667H0V1.16667H1.33333V2.73333C1.9 2.02222 2.59167 1.47222 3.40833 1.08333C4.225 0.694444 5.08889 0.5 6 0.5C6.83333 0.5 7.61389 0.658333 8.34167 0.975C9.06944 1.29167 9.70278 1.71944 10.2417 2.25833C10.7806 2.79722 11.2083 3.43056 11.525 4.15833C11.8417 4.88611 12 5.66667 12 6.5C12 7.33333 11.8417 8.11389 11.525 8.84167C11.2083 9.56944 10.7806 10.2028 10.2417 10.7417C9.70278 11.2806 9.06944 11.7083 8.34167 12.025C7.61389 12.3417 6.83333 12.5 6 12.5ZM7.86667 9.3L5.33333 6.76667V3.16667H6.66667V6.23333L8.8 8.36667L7.86667 9.3Z" fill="#0E0E0E"/>
</svg>
