<svg width="28" height="28" viewBox="0 0 28 28" fill="none" xmlns="http://www.w3.org/2000/svg">
<mask id="mask0_505_256" style="mask-type:alpha" maskUnits="userSpaceOnUse" x="0" y="0" width="28" height="28">
<rect width="28" height="28" fill="#D9D9D9"/>
</mask>
<g mask="url(#mask0_505_256)">
<path d="M14.0002 15.7487L21.0002 11.082L14.0002 6.41536V15.7487ZM14.8169 22.1654H21.3502C21.2141 22.6709 20.9808 23.0793 20.6502 23.3904C20.3197 23.7015 19.8919 23.8959 19.3669 23.9737L6.65024 25.5195C6.00857 25.6168 5.4301 25.4661 4.91482 25.0674C4.39954 24.6688 4.10302 24.1487 4.02524 23.507L2.47941 10.7612C2.40163 10.1195 2.55718 9.54592 2.94607 9.04036C3.33496 8.53481 3.85024 8.24314 4.49191 8.16536L5.83357 7.99036V10.3237L4.78357 10.4695L6.35857 23.2154L14.8169 22.1654ZM10.5002 19.832C9.85857 19.832 9.30927 19.6036 8.85232 19.1466C8.39538 18.6897 8.16691 18.1404 8.16691 17.4987V4.66536C8.16691 4.0237 8.39538 3.47439 8.85232 3.01745C9.30927 2.5605 9.85857 2.33203 10.5002 2.33203H23.3336C23.9752 2.33203 24.5245 2.5605 24.9815 3.01745C25.4384 3.47439 25.6669 4.0237 25.6669 4.66536V17.4987C25.6669 18.1404 25.4384 18.6897 24.9815 19.1466C24.5245 19.6036 23.9752 19.832 23.3336 19.832H10.5002ZM10.5002 17.4987H23.3336V4.66536H10.5002V17.4987Z" fill="#0E0E0E"/>
</g>
</svg>
